<mxfile host="app.diagrams.net" modified="2024-04-14T00:25:06.581Z" agent="Mozilla/5.0 (Windows NT 10.0; Win64; x64) AppleWebKit/537.36 (KHTML, like Gecko) Chrome/123.0.0.0 Safari/537.36" etag="k7faMnb5P0dDWKCO_3fj" version="24.2.5" type="device">
  <diagram name="Página-1" id="hYEwGtZFYIIR_YW_eRGo">
    <mxGraphModel dx="913" dy="484" grid="1" gridSize="10" guides="1" tooltips="1" connect="1" arrows="1" fold="1" page="1" pageScale="1" pageWidth="827" pageHeight="1169" math="0" shadow="0">
      <root>
        <mxCell id="0" />
        <mxCell id="1" parent="0" />
        <mxCell id="f7oBMonLgJttrzuBVPbu-1" value="Jugador" style="swimlane;fontStyle=0;childLayout=stackLayout;horizontal=1;startSize=30;horizontalStack=0;resizeParent=1;resizeParentMax=0;resizeLast=0;collapsible=1;marginBottom=0;whiteSpace=wrap;html=1;" vertex="1" parent="1">
          <mxGeometry x="170" y="260" width="140" height="150" as="geometry" />
        </mxCell>
        <mxCell id="f7oBMonLgJttrzuBVPbu-7" value="&amp;nbsp;id_de_jugador" style="text;html=1;align=left;verticalAlign=middle;whiteSpace=wrap;rounded=0;" vertex="1" parent="f7oBMonLgJttrzuBVPbu-1">
          <mxGeometry y="30" width="140" height="30" as="geometry" />
        </mxCell>
        <mxCell id="f7oBMonLgJttrzuBVPbu-9" value="Nombre_jugador" style="text;html=1;align=left;verticalAlign=middle;whiteSpace=wrap;rounded=0;" vertex="1" parent="f7oBMonLgJttrzuBVPbu-1">
          <mxGeometry y="60" width="140" height="30" as="geometry" />
        </mxCell>
        <mxCell id="f7oBMonLgJttrzuBVPbu-8" value="Correo" style="text;html=1;align=left;verticalAlign=middle;whiteSpace=wrap;rounded=0;" vertex="1" parent="f7oBMonLgJttrzuBVPbu-1">
          <mxGeometry y="90" width="140" height="30" as="geometry" />
        </mxCell>
        <mxCell id="f7oBMonLgJttrzuBVPbu-6" value="Contraseña" style="text;html=1;align=left;verticalAlign=middle;whiteSpace=wrap;rounded=0;" vertex="1" parent="f7oBMonLgJttrzuBVPbu-1">
          <mxGeometry y="120" width="140" height="30" as="geometry" />
        </mxCell>
        <mxCell id="f7oBMonLgJttrzuBVPbu-10" value="Deck" style="swimlane;fontStyle=0;childLayout=stackLayout;horizontal=1;startSize=30;horizontalStack=0;resizeParent=1;resizeParentMax=0;resizeLast=0;collapsible=1;marginBottom=0;whiteSpace=wrap;html=1;" vertex="1" parent="1">
          <mxGeometry x="100" y="450" width="140" height="120" as="geometry" />
        </mxCell>
        <mxCell id="f7oBMonLgJttrzuBVPbu-11" value="id_de_deck" style="text;html=1;align=left;verticalAlign=middle;whiteSpace=wrap;rounded=0;" vertex="1" parent="f7oBMonLgJttrzuBVPbu-10">
          <mxGeometry y="30" width="140" height="30" as="geometry" />
        </mxCell>
        <mxCell id="f7oBMonLgJttrzuBVPbu-12" value="Nombre_deck" style="text;html=1;align=left;verticalAlign=middle;whiteSpace=wrap;rounded=0;" vertex="1" parent="f7oBMonLgJttrzuBVPbu-10">
          <mxGeometry y="60" width="140" height="30" as="geometry" />
        </mxCell>
        <mxCell id="f7oBMonLgJttrzuBVPbu-13" value="Id_jugador" style="text;html=1;align=left;verticalAlign=middle;whiteSpace=wrap;rounded=0;" vertex="1" parent="f7oBMonLgJttrzuBVPbu-10">
          <mxGeometry y="90" width="140" height="30" as="geometry" />
        </mxCell>
        <mxCell id="f7oBMonLgJttrzuBVPbu-19" value="Carta" style="swimlane;fontStyle=0;childLayout=stackLayout;horizontal=1;startSize=30;horizontalStack=0;resizeParent=1;resizeParentMax=0;resizeLast=0;collapsible=1;marginBottom=0;whiteSpace=wrap;html=1;" vertex="1" parent="1">
          <mxGeometry x="310" y="600" width="140" height="210" as="geometry" />
        </mxCell>
        <mxCell id="f7oBMonLgJttrzuBVPbu-20" value="&amp;nbsp;id_de_carta" style="text;html=1;align=left;verticalAlign=middle;whiteSpace=wrap;rounded=0;" vertex="1" parent="f7oBMonLgJttrzuBVPbu-19">
          <mxGeometry y="30" width="140" height="30" as="geometry" />
        </mxCell>
        <mxCell id="f7oBMonLgJttrzuBVPbu-21" value="Nombre_carta" style="text;html=1;align=left;verticalAlign=middle;whiteSpace=wrap;rounded=0;" vertex="1" parent="f7oBMonLgJttrzuBVPbu-19">
          <mxGeometry y="60" width="140" height="30" as="geometry" />
        </mxCell>
        <mxCell id="f7oBMonLgJttrzuBVPbu-22" value="rareza" style="text;html=1;align=left;verticalAlign=middle;whiteSpace=wrap;rounded=0;" vertex="1" parent="f7oBMonLgJttrzuBVPbu-19">
          <mxGeometry y="90" width="140" height="30" as="geometry" />
        </mxCell>
        <mxCell id="f7oBMonLgJttrzuBVPbu-23" value="Tipo_carta(entrenador, energía,pokemon,etc)" style="text;html=1;align=left;verticalAlign=middle;whiteSpace=wrap;rounded=0;" vertex="1" parent="f7oBMonLgJttrzuBVPbu-19">
          <mxGeometry y="120" width="140" height="30" as="geometry" />
        </mxCell>
        <mxCell id="f7oBMonLgJttrzuBVPbu-24" value="Costo" style="text;html=1;align=left;verticalAlign=middle;whiteSpace=wrap;rounded=0;" vertex="1" parent="f7oBMonLgJttrzuBVPbu-19">
          <mxGeometry y="150" width="140" height="30" as="geometry" />
        </mxCell>
        <mxCell id="f7oBMonLgJttrzuBVPbu-25" value="Rareza" style="text;html=1;align=left;verticalAlign=middle;whiteSpace=wrap;rounded=0;" vertex="1" parent="f7oBMonLgJttrzuBVPbu-19">
          <mxGeometry y="180" width="140" height="30" as="geometry" />
        </mxCell>
        <mxCell id="f7oBMonLgJttrzuBVPbu-30" value="Partida" style="swimlane;fontStyle=0;childLayout=stackLayout;horizontal=1;startSize=30;horizontalStack=0;resizeParent=1;resizeParentMax=0;resizeLast=0;collapsible=1;marginBottom=0;whiteSpace=wrap;html=1;" vertex="1" parent="1">
          <mxGeometry x="470" y="280" width="140" height="120" as="geometry" />
        </mxCell>
        <mxCell id="f7oBMonLgJttrzuBVPbu-31" value="&amp;nbsp;id_de_partida" style="text;html=1;align=left;verticalAlign=middle;whiteSpace=wrap;rounded=0;" vertex="1" parent="f7oBMonLgJttrzuBVPbu-30">
          <mxGeometry y="30" width="140" height="30" as="geometry" />
        </mxCell>
        <mxCell id="f7oBMonLgJttrzuBVPbu-32" value="fecha" style="text;html=1;align=left;verticalAlign=middle;whiteSpace=wrap;rounded=0;" vertex="1" parent="f7oBMonLgJttrzuBVPbu-30">
          <mxGeometry y="60" width="140" height="30" as="geometry" />
        </mxCell>
        <mxCell id="f7oBMonLgJttrzuBVPbu-33" value="duración" style="text;html=1;align=left;verticalAlign=middle;whiteSpace=wrap;rounded=0;" vertex="1" parent="f7oBMonLgJttrzuBVPbu-30">
          <mxGeometry y="90" width="140" height="30" as="geometry" />
        </mxCell>
        <mxCell id="f7oBMonLgJttrzuBVPbu-35" value="Deck_en_partida" style="swimlane;fontStyle=0;childLayout=stackLayout;horizontal=1;startSize=30;horizontalStack=0;resizeParent=1;resizeParentMax=0;resizeLast=0;collapsible=1;marginBottom=0;whiteSpace=wrap;html=1;" vertex="1" parent="1">
          <mxGeometry x="490" y="500" width="140" height="120" as="geometry" />
        </mxCell>
        <mxCell id="f7oBMonLgJttrzuBVPbu-36" value="id_de_deck_partida" style="text;html=1;align=left;verticalAlign=middle;whiteSpace=wrap;rounded=0;" vertex="1" parent="f7oBMonLgJttrzuBVPbu-35">
          <mxGeometry y="30" width="140" height="30" as="geometry" />
        </mxCell>
        <mxCell id="f7oBMonLgJttrzuBVPbu-37" value="Id_jugador" style="text;html=1;align=left;verticalAlign=middle;whiteSpace=wrap;rounded=0;" vertex="1" parent="f7oBMonLgJttrzuBVPbu-35">
          <mxGeometry y="60" width="140" height="30" as="geometry" />
        </mxCell>
        <mxCell id="f7oBMonLgJttrzuBVPbu-38" value="Id_partida" style="text;html=1;align=left;verticalAlign=middle;whiteSpace=wrap;rounded=0;" vertex="1" parent="f7oBMonLgJttrzuBVPbu-35">
          <mxGeometry y="90" width="140" height="30" as="geometry" />
        </mxCell>
        <mxCell id="f7oBMonLgJttrzuBVPbu-40" value="" style="edgeStyle=entityRelationEdgeStyle;fontSize=12;html=1;endArrow=ERoneToMany;rounded=0;" edge="1" parent="1" source="f7oBMonLgJttrzuBVPbu-1" target="f7oBMonLgJttrzuBVPbu-10">
          <mxGeometry width="100" height="100" relative="1" as="geometry">
            <mxPoint x="420" y="460" as="sourcePoint" />
            <mxPoint x="520" y="360" as="targetPoint" />
          </mxGeometry>
        </mxCell>
        <mxCell id="f7oBMonLgJttrzuBVPbu-41" value="" style="edgeStyle=entityRelationEdgeStyle;fontSize=12;html=1;endArrow=ERmany;startArrow=ERmany;rounded=0;entryX=0;entryY=0;entryDx=0;entryDy=0;exitX=1;exitY=0.5;exitDx=0;exitDy=0;" edge="1" parent="1" source="f7oBMonLgJttrzuBVPbu-12" target="f7oBMonLgJttrzuBVPbu-22">
          <mxGeometry width="100" height="100" relative="1" as="geometry">
            <mxPoint x="420" y="550" as="sourcePoint" />
            <mxPoint x="520" y="450" as="targetPoint" />
          </mxGeometry>
        </mxCell>
        <mxCell id="f7oBMonLgJttrzuBVPbu-43" value="" style="edgeStyle=entityRelationEdgeStyle;fontSize=12;html=1;endArrow=ERmany;startArrow=ERmany;rounded=0;exitX=1;exitY=0.5;exitDx=0;exitDy=0;entryX=0;entryY=1;entryDx=0;entryDy=0;" edge="1" parent="1" source="f7oBMonLgJttrzuBVPbu-7" target="f7oBMonLgJttrzuBVPbu-31">
          <mxGeometry width="100" height="100" relative="1" as="geometry">
            <mxPoint x="420" y="550" as="sourcePoint" />
            <mxPoint x="440" y="510" as="targetPoint" />
          </mxGeometry>
        </mxCell>
        <mxCell id="f7oBMonLgJttrzuBVPbu-44" value="" style="edgeStyle=entityRelationEdgeStyle;fontSize=12;html=1;endArrow=ERmany;startArrow=ERmany;rounded=0;exitX=1;exitY=0.75;exitDx=0;exitDy=0;entryX=0;entryY=0;entryDx=0;entryDy=0;" edge="1" parent="1" source="f7oBMonLgJttrzuBVPbu-22" target="f7oBMonLgJttrzuBVPbu-37">
          <mxGeometry width="100" height="100" relative="1" as="geometry">
            <mxPoint x="420" y="610" as="sourcePoint" />
            <mxPoint x="520" y="510" as="targetPoint" />
          </mxGeometry>
        </mxCell>
        <mxCell id="f7oBMonLgJttrzuBVPbu-45" value="" style="edgeStyle=entityRelationEdgeStyle;fontSize=12;html=1;endArrow=ERmany;startArrow=ERmany;rounded=0;exitX=1;exitY=0;exitDx=0;exitDy=0;" edge="1" parent="1" source="f7oBMonLgJttrzuBVPbu-32" target="f7oBMonLgJttrzuBVPbu-35">
          <mxGeometry width="100" height="100" relative="1" as="geometry">
            <mxPoint x="680" y="345" as="sourcePoint" />
            <mxPoint x="710" y="580" as="targetPoint" />
            <Array as="points">
              <mxPoint x="790" y="475" />
              <mxPoint x="730" y="400" />
              <mxPoint x="790" y="620" />
              <mxPoint x="770" y="525" />
              <mxPoint x="680" y="580" />
            </Array>
          </mxGeometry>
        </mxCell>
        <mxCell id="f7oBMonLgJttrzuBVPbu-48" value="" style="edgeStyle=entityRelationEdgeStyle;fontSize=12;html=1;endArrow=ERmandOne;startArrow=ERmandOne;rounded=0;exitX=1;exitY=0;exitDx=0;exitDy=0;" edge="1" parent="1" source="f7oBMonLgJttrzuBVPbu-11">
          <mxGeometry width="100" height="100" relative="1" as="geometry">
            <mxPoint x="250" y="487.5" as="sourcePoint" />
            <mxPoint x="470" y="370" as="targetPoint" />
          </mxGeometry>
        </mxCell>
      </root>
    </mxGraphModel>
  </diagram>
</mxfile>
